<?xml version="1.0" standalone="no"?>
<!DOCTYPE svg PUBLIC "-//W3C//DTD SVG 20010904//EN"
 "http://www.w3.org/TR/2001/REC-SVG-20010904/DTD/svg10.dtd">
<svg version="1.0" xmlns="http://www.w3.org/2000/svg"
 width="800.000000pt" height="800.000000pt" viewBox="0 0 800.000000 800.000000"
 preserveAspectRatio="xMidYMid meet">
<metadata>
Created by potrace 1.14, written by Peter Selinger 2001-2017
</metadata>
<g transform="translate(0.000000,800.000000) scale(0.100000,-0.100000)"
fill="#000000" stroke="none">
<path d="M3640 7986 c-45 -9 -55 -15 -55 -31 0 -25 10 -25 105 -5 93 19 150
18 166 -4 19 -26 -1 -78 -50 -134 l-21 -24 24 -19 24 -20 22 23 c12 13 25 35
28 49 15 60 111 137 192 155 l30 6 -25 10 c-32 12 -369 7 -440 -6z"/>
<path d="M3108 7702 c-49 -28 -69 -52 -42 -52 34 0 118 55 108 71 -8 13 -14
11 -66 -19z"/>
<path d="M3694 7615 c-80 -48 -116 -65 -134 -61 -36 7 -96 -13 -121 -40 -13
-13 -17 -24 -11 -24 7 0 12 -8 12 -17 0 -16 -30 -55 -129 -168 -58 -68 -101
-145 -101 -184 0 -24 -45 -113 -70 -140 -75 -78 -152 -211 -121 -211 5 0 13 9
16 21 4 11 65 81 136 156 71 75 129 140 129 145 0 5 -4 7 -9 3 -18 -11 -23 16
-7 34 10 10 21 34 27 53 5 19 17 44 27 55 9 12 42 51 72 88 58 70 129 129 233
191 113 69 187 128 187 151 0 23 -24 14 -136 -52z"/>
<path d="M2964 7609 c-9 -15 12 -33 30 -26 9 4 16 13 16 22 0 17 -35 21 -46 4z"/>
<path d="M2864 7570 c-11 -4 -28 -20 -38 -34 -9 -15 -55 -51 -101 -82 -83 -55
-112 -85 -57 -61 100 44 262 150 262 171 0 14 -37 18 -66 6z"/>
<path d="M3006 7534 c-22 -21 -37 -50 -29 -57 9 -9 60 20 67 38 14 38 -9 49
-38 19z"/>
<path d="M4971 7427 c-14 -17 3 -41 23 -34 9 4 16 13 16 21 0 19 -26 28 -39
13z"/>
<path d="M3630 7370 c-34 -27 -77 -59 -95 -70 -33 -20 -51 -58 -36 -73 10 -10
78 41 150 114 58 59 71 79 52 79 -5 0 -37 -22 -71 -50z"/>
<path d="M2470 7275 c0 -8 6 -15 14 -15 7 0 19 7 26 15 11 13 8 15 -14 15 -16
0 -26 -5 -26 -15z"/>
<path d="M5375 6981 c-3 -5 3 -17 12 -27 11 -11 18 -13 21 -5 9 28 -18 55 -33
32z"/>
<path d="M1954 6728 c-42 -50 -57 -99 -33 -114 18 -11 30 10 43 75 7 33 12 61
11 61 -1 0 -10 -10 -21 -22z"/>
<path d="M3147 6666 c-9 -9 -32 -16 -52 -16 -32 0 -36 -3 -33 -22 2 -16 11
-23 33 -25 36 -4 120 36 120 57 0 21 -49 25 -68 6z"/>
<path d="M2944 6599 c-10 -16 7 -29 36 -29 16 0 59 -14 95 -32 l65 -32 21 21
c28 27 19 53 -18 54 -15 0 -37 2 -48 4 -123 22 -144 24 -151 14z"/>
<path d="M3357 6583 c-32 -32 60 -183 112 -183 10 0 47 -19 81 -41 47 -32 64
-39 70 -29 6 10 17 11 47 3 22 -6 56 -10 76 -9 23 1 39 -4 42 -13 4 -10 20
-12 72 -7 37 4 68 8 70 9 1 2 -31 11 -72 21 -41 10 -77 22 -81 27 -3 5 35 8
95 7 55 -1 103 1 106 4 13 12 -39 30 -94 33 -73 3 -71 3 -71 20 0 20 -10 19
-40 -5 -14 -11 -35 -20 -48 -20 l-23 0 21 27 c29 38 10 54 -30 25 -16 -12 -37
-22 -46 -22 -15 0 -15 2 1 26 13 20 14 28 5 34 -15 9 -66 -2 -100 -21 l-25
-14 23 -3 c25 -4 25 -20 1 -35 -28 -18 -140 46 -118 67 2 2 21 6 43 9 33 4 56
19 56 37 0 12 -16 28 -30 30 -29 4 -38 0 -43 -21 -8 -28 -33 -18 -29 11 1 13
-3 27 -10 32 -16 9 -52 10 -61 1z"/>
<path d="M3297 6526 c-3 -8 -3 -17 0 -20 8 -7 43 12 43 24 0 15 -37 12 -43 -4z"/>
<path d="M1801 6449 c-6 -13 -15 -50 -21 -81 -6 -31 -19 -67 -29 -80 -33 -43
-31 -98 4 -98 8 0 21 -10 29 -22 15 -21 16 -21 35 -4 11 10 17 24 14 32 -3 8
-8 12 -11 10 -9 -10 -32 16 -32 37 0 11 7 28 16 38 11 12 17 42 19 91 4 82 -7
118 -24 77z"/>
<path d="M6001 6386 l-23 -13 28 -22 c32 -25 59 -24 59 3 0 30 -35 47 -64 32z"/>
<path d="M5748 6369 c-21 -12 -24 -39 -4 -39 7 0 19 7 26 15 17 21 1 37 -22
24z"/>
<path d="M4017 6359 c-9 -6 -17 -14 -17 -19 0 -16 37 -11 43 5 8 19 -4 26 -26
14z"/>
<path d="M2848 6345 c-2 -2 -30 -6 -63 -9 -108 -11 -148 -22 -195 -56 -15 -10
-39 -21 -54 -24 -82 -15 -295 -145 -448 -274 -12 -11 -45 -39 -73 -62 -27 -23
-119 -110 -203 -193 -135 -133 -248 -264 -450 -516 -108 -135 -157 -252 -206
-491 -22 -107 -34 -173 -71 -385 -14 -84 -20 -164 -20 -300 0 -170 19 -268 82
-423 84 -207 117 -371 113 -562 -4 -184 -1 -239 16 -303 20 -76 94 -237 117
-256 29 -24 21 28 -12 78 -17 25 -27 49 -24 54 3 5 -3 27 -13 49 -18 39 -18
41 1 54 16 12 22 12 39 0 12 -7 20 -17 19 -22 0 -5 14 -37 33 -70 19 -34 41
-87 49 -118 32 -122 179 -377 266 -461 50 -49 110 -129 251 -334 228 -332 240
-350 264 -423 14 -40 33 -95 44 -123 10 -27 22 -71 25 -97 7 -55 26 -78 62
-78 45 0 19 -25 -30 -28 -46 -3 -47 -4 -47 -38 0 -44 -15 -43 -66 4 -108 99
-236 303 -251 397 -9 60 -43 93 -43 41 0 -72 122 -309 208 -406 18 -19 32 -43
32 -53 0 -20 -42 -39 -67 -30 -11 5 -14 3 -8 -6 17 -28 -180 -181 -237 -185
-20 -1 -23 -6 -23 -41 1 -54 15 -51 140 34 114 78 155 100 172 94 6 -2 22 2
35 10 25 15 31 15 65 4 33 -12 49 -59 78 -232 35 -215 35 -215 46 -244 8 -19
12 -22 19 -12 4 8 7 19 5 25 -2 6 -6 45 -10 86 -3 41 -10 93 -15 115 -5 22
-12 60 -15 85 -4 24 -8 47 -10 50 -6 9 -18 144 -18 189 2 94 40 63 44 -36 1
-26 15 -114 30 -195 34 -178 37 -196 38 -227 1 -13 4 -22 7 -19 9 9 11 160 3
193 -7 29 -14 83 -24 210 -8 86 23 120 39 43 14 -68 70 -164 158 -271 85 -102
91 -139 11 -63 -50 48 -63 55 -63 33 0 -20 70 -84 110 -101 35 -14 77 -50 115
-95 21 -26 10 -22 -37 13 -15 11 -30 17 -33 14 -4 -4 81 -109 150 -184 5 -6
37 -44 69 -83 60 -73 89 -97 105 -86 17 10 0 41 -45 85 -57 55 -59 80 -4 44
22 -15 48 -24 57 -22 16 4 18 -1 15 -42 -3 -33 1 -50 12 -60 14 -11 20 -9 42
11 l26 24 19 -24 c15 -19 22 -22 32 -12 9 9 8 19 -6 43 -26 45 -10 49 27 6 78
-89 145 -79 489 76 90 41 175 77 188 81 13 4 72 37 131 72 60 35 113 61 118
58 5 -3 3 -25 -6 -53 -16 -53 -29 -142 -20 -142 5 0 23 58 31 100 2 8 10 42
18 75 9 33 18 71 20 85 3 14 12 63 20 110 9 47 19 117 22 155 9 96 23 145 41
145 8 0 19 -12 25 -27 13 -35 9 -199 -7 -288 -20 -110 -20 -110 19 -82 17 14
49 31 70 38 32 11 39 11 52 -2 24 -23 26 -78 4 -100 -26 -26 -24 -37 6 -45 24
-6 62 12 50 24 -3 3 5 10 17 16 12 6 26 26 30 44 8 28 5 39 -16 67 -29 38 -26
45 17 38 43 -6 57 -22 60 -66 2 -20 6 -40 10 -43 4 -4 29 2 55 13 66 28 81 17
42 -32 -54 -67 -34 -73 33 -9 87 85 108 97 242 143 125 43 142 52 130 71 -10
16 -54 4 -82 -22 -19 -18 -23 -19 -23 -5 0 24 -17 30 -41 14 -11 -8 -29 -12
-40 -10 -12 4 -29 -3 -44 -17 l-24 -23 4 23 c6 33 30 55 73 68 20 6 90 27 155
48 95 30 134 37 197 37 72 0 82 -3 126 -34 39 -26 59 -33 94 -32 62 0 137 35
150 68 10 25 10 25 41 9 26 -13 33 -14 40 -2 6 8 3 17 -7 25 -15 11 -15 14 0
34 14 21 14 25 0 40 -14 15 -12 17 23 24 21 4 68 22 106 41 60 30 67 32 67 15
0 -24 18 -31 48 -19 31 11 45 2 32 -22 -14 -26 -13 -30 10 -30 18 0 25 11 21
33 -3 17 31 18 76 3 65 -21 103 -27 103 -15 0 11 -65 52 -107 67 -17 6 -55 27
-85 47 l-53 37 42 -7 c41 -6 42 -6 45 26 3 29 10 36 78 71 102 52 110 62 79
87 -13 11 -88 59 -166 107 -79 48 -143 90 -143 92 0 4 75 98 214 266 64 79
151 207 186 275 47 94 74 231 45 231 -14 0 -26 -35 -39 -112 -4 -23 -22 -56
-46 -83 -22 -25 -54 -67 -72 -93 -31 -45 -32 -46 -38 -22 -6 22 -11 25 -47 23
-101 -4 -191 -77 -363 -293 -97 -121 -153 -183 -144 -158 3 10 2 18 -3 18 -18
0 -60 -56 -123 -160 -34 -58 -84 -132 -110 -165 -26 -33 -54 -73 -63 -90 -19
-37 -84 -100 -72 -70 4 11 10 32 13 47 4 24 1 28 -21 28 -36 0 -51 -23 -43
-66 l7 -35 -45 6 c-39 6 -46 5 -46 -9 0 -15 -9 -20 -27 -13 -8 2 -9 7 -12 35
-1 17 -28 15 -35 -3 -4 -11 -23 -14 -83 -13 -66 2 -87 -2 -137 -25 -76 -35
-82 -34 -52 6 40 52 33 73 -12 41 -12 -8 -36 -19 -52 -24 -57 -16 -39 9 37 53
43 25 87 52 98 61 19 14 18 15 -17 9 -30 -4 -38 -2 -38 10 0 8 10 21 23 30 20
13 76 142 65 152 -11 11 -53 -24 -60 -51 -9 -34 -56 -76 -111 -99 -42 -17 -58
-5 -50 36 3 16 2 29 -1 29 -17 0 -44 -21 -60 -46 -17 -25 -17 -27 5 -51 l24
-24 -27 10 c-20 8 -29 7 -39 -5 -8 -10 -21 -13 -41 -9 -31 7 -31 7 -28 -60 1
-32 -5 -47 -30 -73 -19 -21 -30 -44 -30 -62 0 -44 -55 -58 -66 -16 -13 52
-110 59 -133 10 -6 -14 -11 -46 -11 -71 0 -46 0 -46 -21 -27 -20 18 -20 18
-14 -9 11 -41 -11 -65 -126 -142 -57 -38 -161 -111 -231 -162 -149 -109 -187
-133 -210 -133 -55 0 24 89 277 313 99 88 254 230 345 317 248 236 326 299
609 490 84 57 167 121 185 143 17 22 47 58 67 81 75 85 109 138 109 166 0 45
39 139 65 156 12 8 38 49 56 92 35 80 72 153 108 212 31 51 81 157 81 172 0
33 106 171 254 328 178 191 208 241 210 359 1 42 -2 103 -6 136 -4 33 -10 77
-13 97 -2 21 -11 64 -19 95 -32 124 -55 263 -71 423 -14 141 -19 199 -30 365
-11 158 -43 284 -86 348 -13 18 -46 57 -74 87 -28 30 -89 104 -136 165 -46 60
-100 124 -119 142 -71 65 -348 282 -465 363 -152 105 -165 117 -165 151 0 32
-18 45 -70 48 -42 2 -46 6 -63 56 -14 41 -46 70 -54 48 -14 -39 -51 -78 -73
-78 -16 0 -25 6 -25 15 0 8 7 15 15 15 23 0 29 16 18 41 -7 14 -31 30 -68 44
-82 31 -240 122 -329 189 -108 82 -194 121 -296 135 -245 34 -325 67 -583 239
-92 62 -180 118 -196 125 -25 11 -227 17 -238 7z m102 -406 c0 -4 -8 -10 -17
-13 -19 -8 -33 9 -33 43 l0 24 25 -23 c14 -13 25 -27 25 -31z m246 9 c20 -15
-12 -187 -46 -245 -11 -20 -17 -43 -14 -61 6 -37 -6 -46 -40 -31 -34 16 -61
75 -50 108 12 33 50 44 41 12 -8 -33 10 -25 38 16 31 46 32 69 3 93 -27 22
-30 97 -4 116 17 12 52 8 72 -8z m-612 -60 c-3 -4 -11 -5 -19 -1 -21 7 -19 12
4 10 11 0 18 -5 15 -9z m835 -10 c-31 -60 -73 -108 -95 -108 -31 0 -38 26 -11
45 22 16 22 16 -5 9 -36 -8 -59 1 -52 21 4 11 21 15 58 15 34 0 61 7 81 20 38
25 38 25 24 -2z m-1029 -13 c0 -12 -68 -45 -93 -45 -44 0 -27 25 17 26 20 1
42 6 49 13 11 11 27 15 27 6z m680 -17 c43 -31 40 -58 -6 -58 -47 0 -74 16
-74 44 0 43 33 49 80 14z m-320 -13 c0 -21 -19 -28 -36 -15 -10 9 -11 16 -3
26 12 15 39 8 39 -11z m789 -25 c-38 -33 -72 -43 -48 -13 17 20 71 54 78 48 2
-3 -11 -18 -30 -35z m-1459 -25 c-17 -21 -30 -19 -30 5 0 24 33 46 38 24 2 -8
-2 -21 -8 -29z m391 -8 c-11 -19 -18 -37 -15 -40 4 -4 -1 -18 -10 -31 -9 -15
-16 -46 -16 -76 0 -49 -4 -57 -26 -42 -41 27 -46 112 -9 144 14 12 25 30 25
39 0 20 25 38 53 39 18 0 17 -2 -2 -33z m238 10 c8 -10 7 -18 -3 -32 -15 -21
-36 -13 -36 14 0 31 20 40 39 18z m1191 -6 c0 -17 -62 -57 -170 -111 -131 -65
-146 -79 -160 -146 -12 -57 -30 -64 -30 -13 0 41 36 138 60 165 12 12 40 25
62 28 23 4 73 22 112 40 102 48 126 55 126 37z m-330 -10 c0 -13 -64 -60 -105
-77 -19 -8 -35 -19 -35 -25 0 -6 -11 -25 -26 -44 -29 -39 -90 -66 -131 -59
-31 5 -97 68 -90 87 2 7 31 14 68 18 38 3 88 16 123 32 32 15 70 27 85 27 15
0 42 11 61 25 38 26 50 30 50 16z m-639 -103 c-17 -27 -31 -51 -31 -53 0 -3
13 -2 29 1 l29 6 0 -78 c-1 -66 3 -88 26 -131 34 -67 33 -72 -7 -63 -35 7 -77
-3 -77 -19 0 -5 9 -7 20 -4 25 7 28 -22 3 -35 -27 -16 -61 7 -103 71 -52 77
-64 122 -65 235 0 81 3 95 19 108 28 20 49 17 82 -11 16 -14 32 -25 36 -25 12
0 39 32 50 59 10 22 12 23 15 8 3 -11 -9 -41 -26 -69z m-381 60 c0 -24 -45
-118 -55 -114 -16 5 -6 66 16 97 21 30 39 38 39 17z m60 -38 c0 -18 -23 -59
-36 -64 -22 -9 -24 9 -4 42 19 31 40 43 40 22z m1375 -12 c37 -17 31 -30 -12
-26 -27 2 -39 8 -41 21 -4 20 16 22 53 5z m-445 -37 c0 -5 -12 -19 -27 -30
-16 -14 -28 -35 -32 -59 -4 -24 -12 -38 -24 -40 -30 -6 -20 33 23 87 38 48 60
63 60 42z m436 -43 c42 -32 52 -46 84 -113 29 -61 33 -121 10 -135 -6 -4 -10
-18 -8 -31 2 -13 -1 -26 -7 -28 -14 -5 -35 38 -35 72 0 36 -34 103 -59 117
-33 17 -51 12 -51 -15 0 -17 4 -23 14 -19 21 8 26 -8 27 -85 1 -64 3 -73 26
-91 17 -13 21 -20 11 -20 -9 0 -21 -7 -28 -15 -19 -23 12 -30 49 -10 44 22 38
10 -10 -22 -40 -27 -41 -27 -74 -9 -19 10 -44 29 -56 42 -20 21 -20 26 -9 74
11 44 10 54 -3 67 -17 17 -37 10 -37 -14 0 -13 -3 -13 -15 -3 -17 14 -89 5
-79 -11 3 -5 1 -15 -4 -22 -6 -7 -16 -34 -22 -60 l-12 -47 -54 49 c-30 27 -75
57 -101 66 -75 27 -92 37 -87 50 6 15 87 18 165 6 58 -10 70 -3 63 33 -5 25
14 38 39 24 30 -16 29 -5 -3 29 -39 41 -38 53 5 53 24 0 39 6 47 20 16 26 30
25 54 -1 10 -11 27 -25 38 -31 18 -10 19 -7 13 32 l-5 43 28 -32 c16 -17 34
-31 41 -31 11 0 10 5 -7 68 -8 29 14 29 52 0z m334 -90 c85 -162 104 -192 139
-230 23 -26 50 -35 64 -22 12 12 -5 32 -24 27 -13 -4 -19 0 -19 12 0 15 6 17
43 11 23 -4 46 -11 51 -16 14 -14 -61 -79 -101 -86 -86 -16 -165 78 -189 226
-5 30 -24 118 -31 143 -2 10 1 17 9 17 8 0 34 -37 58 -82z m-1750 53 c-5 -11
-15 -23 -20 -26 -28 -17 3 -131 46 -166 29 -24 64 -87 58 -104 -5 -13 -1 -15
25 -10 41 7 42 -17 2 -41 -21 -12 -31 -27 -35 -54 -3 -21 -13 -41 -22 -44 -32
-12 -90 -5 -144 19 -99 42 -151 119 -136 200 10 51 84 125 125 125 28 0 30 2
25 28 -5 22 1 34 27 60 38 37 66 44 49 13z m-449 -13 c27 34 46 28 54 -20 2
-13 20 -37 40 -55 l36 -31 -41 9 c-51 12 -64 5 -48 -24 10 -20 10 -21 -6 -7
-17 14 -93 110 -111 139 -5 8 6 4 25 -9 l33 -23 18 21z m128 -4 c-6 -8 -21
-14 -33 -14 -21 1 -21 1 3 20 25 22 49 17 30 -6z m2242 -47 c14 -12 31 -32 38
-44 9 -19 8 -24 -9 -33 -17 -9 -24 -5 -50 31 -47 65 -34 94 21 46z m-1201 -22
c0 -19 -46 -20 -53 -1 -3 7 -1 18 5 24 14 14 48 -3 48 -23z m55 -46 c0 -7 -8
-15 -17 -17 -18 -3 -25 18 -11 32 10 10 28 1 28 -15z m1052 -16 c-3 -10 -5 -4
-5 12 0 17 2 24 5 18 2 -7 2 -21 0 -30z m-1264 4 c3 -8 2 -29 -2 -48 -7 -33
-8 -33 -19 -12 -7 12 -12 30 -12 41 0 31 23 44 33 19z m1487 3 c0 -5 -4 -10
-9 -10 -5 0 -17 -3 -25 -6 -12 -5 -15 -2 -10 10 7 17 44 22 44 6z m186 -45
c15 -24 12 -65 -6 -65 -12 0 -16 9 -24 53 -8 43 6 49 30 12z m-2602 -99 c10
-59 19 -81 36 -93 22 -16 56 -81 46 -90 -10 -10 -51 24 -84 71 -18 25 -31 46
-27 46 3 0 1 9 -4 19 -6 10 -13 42 -17 70 -14 119 29 99 50 -23z m86 79 c0 -8
-4 -17 -10 -20 -6 -4 -10 5 -10 20 0 15 4 24 10 20 6 -3 10 -12 10 -20z m775
-34 c0 -17 -42 -34 -51 -20 -8 14 16 40 35 37 9 -2 16 -9 16 -17z m198 -46
c-7 -34 -27 -48 -73 -48 -47 0 -98 29 -81 46 9 9 16 8 31 0 19 -13 72 -2 95
18 18 17 32 9 28 -16z m64 13 c4 -67 33 -145 58 -154 15 -6 75 22 75 35 0 4
-9 16 -19 25 -30 28 -16 66 25 66 36 0 94 -27 94 -43 0 -8 -29 -33 -65 -56
-61 -40 -85 -65 -85 -90 0 -18 40 -13 146 17 111 31 134 29 178 -12 27 -24 54
-35 131 -52 29 -6 29 -6 7 -15 -25 -9 -213 -17 -589 -23 -231 -5 -232 -4 -282
20 -43 22 -69 49 -58 61 3 2 25 -2 51 -9 46 -12 46 -12 83 24 67 63 117 75
177 43 l36 -19 20 22 21 22 -33 -2 c-40 -4 -50 24 -19 53 11 11 23 32 27 47 8
38 13 52 17 52 2 0 4 -6 4 -12z m-1330 -41 c3 -4 1 -18 -7 -31 -11 -21 -10
-28 9 -54 11 -17 21 -35 21 -41 0 -17 -36 -31 -80 -31 l-42 0 16 25 c21 32 21
35 -11 35 -40 0 -56 14 -48 39 5 17 1 23 -20 31 -15 6 -30 8 -35 5 -5 -3 -11
-1 -15 5 -3 5 7 12 22 16 15 3 33 7 38 8 21 5 145 -1 152 -7z m1027 -12 c8 -9
13 -22 10 -29 -7 -19 -54 -8 -54 13 0 33 20 40 44 16z m1242 -24 c-9 -14 -33
-14 -41 -1 -4 6 -1 18 6 26 11 13 14 13 27 0 8 -8 11 -19 8 -25z m-1491 -12
c4 -6 -1 -17 -11 -25 -17 -13 -14 -14 29 -8 43 6 47 4 47 -14 0 -14 -8 -22
-22 -24 -59 -8 -5 -81 95 -129 48 -22 54 -28 35 -31 -12 -2 -43 0 -68 4 -54 9
-103 57 -144 141 -30 62 -32 77 -11 77 8 0 15 5 15 10 0 13 27 13 35 -1z
m1862 -52 c-13 -31 -47 -50 -47 -27 0 19 41 71 51 65 5 -4 3 -20 -4 -38z
m-772 23 c4 -7 -7 -9 -29 -6 -20 2 -36 1 -36 -4 0 -16 96 -52 153 -58 80 -7
69 -27 -14 -27 -95 1 -172 46 -155 91 6 16 71 19 81 4z m441 -88 c2 -36 -2
-49 -22 -69 -24 -24 -27 -24 -162 -21 -110 2 -137 6 -137 17 0 8 15 19 32 25
18 6 40 21 48 34 16 22 55 31 55 12 0 -5 9 -10 20 -10 17 0 20 7 20 45 0 38 3
45 20 45 15 0 49 -37 42 -47 -9 -14 3 -24 26 -21 25 3 27 6 25 43 l-3 39 17
-24 c9 -13 18 -44 19 -68z m-1333 53 c1 -5 -6 -11 -15 -13 -11 -2 -18 3 -18
13 0 17 30 18 33 0z m-257 -57 c9 -18 30 -47 46 -65 54 -57 32 -67 -192 -88
-30 -3 -75 -7 -100 -10 -25 -2 -81 -7 -125 -11 -44 -3 -89 -8 -100 -10 -11 -2
-31 -6 -45 -9 -14 -2 -36 -7 -50 -9 -44 -8 -64 -14 -124 -35 -33 -12 -63 -21
-69 -21 -17 0 19 44 49 60 16 9 39 36 51 60 29 57 39 66 55 53 19 -15 116 -43
151 -43 l30 0 -24 19 c-13 10 -40 26 -59 36 l-34 18 28 23 c41 36 98 27 144
-22 18 -19 27 -22 37 -14 11 9 22 3 51 -24 21 -20 41 -36 45 -36 4 0 15 -3 25
-7 14 -5 16 -1 12 25 -4 26 -1 32 14 32 11 0 18 7 18 19 0 25 14 29 79 23 l54
-5 -5 31 c-4 27 0 34 19 41 1 1 10 -14 19 -31z m2080 16 c21 -10 34 -24 34
-35 0 -23 7 -24 26 -4 17 17 52 19 73 6 12 -8 13 -12 1 -26 -12 -14 -8 -16 46
-14 67 2 133 -19 126 -40 -4 -11 3 -12 30 -7 39 7 52 -2 63 -47 8 -31 8 -31
-36 -13 -19 8 -82 20 -139 26 -58 6 -138 21 -179 32 -64 17 -90 19 -185 13
-176 -12 -296 -4 -315 19 -7 8 -5 23 7 47 16 31 20 34 57 31 124 -7 222 -3
255 11 46 20 94 21 136 1z m-2982 -144 c-15 -27 -29 -48 -32 -46 -6 7 15 65
35 95 28 44 26 5 -3 -49z m68 -29 c-3 -67 -63 -208 -83 -195 -17 10 -9 55 16
98 13 23 27 60 31 81 6 40 22 70 32 60 3 -3 5 -23 4 -44z m2357 35 c127 -6
179 -18 125 -29 -43 -8 -511 -3 -520 6 -15 15 7 19 123 24 65 3 120 7 121 9 2
1 9 1 15 -1 7 -2 68 -6 136 -9z m-534 -15 c8 -15 -63 -23 -225 -26 -148 -3
-224 5 -190 18 26 10 69 13 242 15 92 0 170 -3 173 -7z m-495 -10 c9 -1 10 -4
5 -10 -11 -10 -147 -27 -290 -36 -169 -11 -230 -16 -309 -25 -44 -6 -82 -8
-84 -5 -9 8 63 34 114 41 27 3 57 8 68 10 20 4 118 13 236 23 64 5 211 7 260
2z m2081 -54 c-13 -13 -31 1 -31 25 0 21 1 21 20 3 13 -12 17 -22 11 -28z
m-1766 -24 c-2 -27 -16 -53 -25 -48 -6 4 -7 26 -1 58 2 16 28 6 26 -10z m100
-24 c9 -27 1 -33 -23 -20 -19 10 -35 45 -25 55 10 10 42 -14 48 -35z m-214
-56 c0 -10 2 -26 4 -37 2 -10 0 -28 -4 -39 -6 -17 -9 -12 -14 22 -3 24 -17 67
-31 95 l-26 51 35 -37 c19 -21 35 -46 36 -55z m289 32 c-32 -46 -47 -54 -36
-18 7 22 56 76 63 69 3 -2 -9 -25 -27 -51z m-1790 -19 c0 -2 -8 -10 -17 -17
-16 -13 -17 -12 -4 4 13 16 21 21 21 13z m1700 -54 c0 -5 -6 -16 -13 -27 -18
-24 -41 -11 -27 16 10 19 40 27 40 11z m-1705 -23 c-9 -14 -86 -69 -97 -69
-17 0 4 22 50 51 50 32 56 34 47 18z m1610 -38 c-3 -28 -16 -61 -25 -61 -19 0
-21 23 -4 67 14 35 19 41 24 28 4 -10 6 -25 5 -34z m568 -20 c4 0 12 -13 18
-28 7 -16 13 -23 16 -15 10 27 52 13 78 -28 16 -25 33 -40 45 -40 22 0 24 -6
20 -67 -1 -36 1 -43 17 -43 10 0 29 9 43 19 24 19 24 19 5 41 l-20 22 35 -7
c43 -9 102 -38 119 -59 20 -23 57 -20 140 14 41 17 76 28 80 25 17 -18 -136
-118 -200 -130 -95 -19 -150 -55 -163 -107 -6 -25 -11 -28 -46 -28 -21 0 -51
5 -66 11 -33 12 -217 199 -241 244 -9 17 -17 56 -17 90 -1 55 1 60 20 57 11
-1 28 6 38 17 16 18 28 20 79 12z m-496 -13 c0 -19 13 -91 19 -110 4 -12 -2
-21 -18 -27 -20 -7 -40 -8 -115 -2 -16 1 -16 41 0 62 7 9 26 23 44 33 18 9 37
25 43 36 12 22 27 26 27 8z m79 -119 c8 -51 -5 -45 -22 9 -12 42 -7 76 7 50 5
-8 11 -35 15 -59z m-1559 -51 c51 -22 116 -54 145 -72 60 -35 61 -36 141 -16
52 12 60 12 74 -3 15 -15 15 -18 -3 -38 -10 -12 -37 -30 -59 -42 -35 -17 -101
-62 -115 -77 -14 -16 -123 -100 -128 -100 -10 0 -53 29 -124 83 -34 27 -81 58
-103 69 -58 29 -85 57 -85 88 0 32 39 94 83 132 38 33 46 32 174 -24z m3658 9
c17 -13 17 -15 -4 -36 -16 -16 -29 -20 -53 -16 -39 7 -48 13 -48 29 0 34 68
49 105 23z m-135 -52 c0 -18 -4 -23 -15 -19 -15 6 -20 35 -9 47 12 11 24 -3
24 -28z m-2014 -44 c55 -25 127 -98 121 -123 -3 -11 2 -22 13 -28 22 -12 73
-93 128 -205 41 -84 52 -116 58 -178 6 -61 37 -107 136 -208 156 -157 230
-215 368 -284 105 -53 161 -63 341 -58 208 5 278 20 429 93 69 32 139 62 155
65 54 12 75 28 99 79 24 51 30 78 41 190 5 40 3 56 -4 51 -6 -3 -11 -11 -11
-16 0 -6 -16 -34 -35 -64 -23 -37 -41 -55 -55 -55 -14 0 -20 -7 -20 -24 0 -38
-87 -108 -213 -170 -152 -75 -250 -98 -432 -99 -127 -1 -144 1 -180 21 -22 12
-49 22 -60 22 -67 0 -358 191 -332 217 7 7 20 -1 168 -108 67 -49 87 -58 175
-77 54 -13 117 -25 139 -27 54 -6 255 -7 282 -1 11 2 42 8 67 11 53 8 173 74
248 136 65 54 81 71 119 130 16 26 38 49 48 52 13 3 24 23 35 63 10 33 32 97
51 144 18 47 41 113 50 148 35 125 45 80 40 -173 -3 -118 -9 -204 -20 -250
-20 -86 -42 -206 -50 -271 -3 -27 -8 -62 -10 -79 -2 -16 -6 -57 -10 -90 -4
-33 -8 -71 -10 -85 -5 -37 -15 -180 -20 -310 -4 -99 -8 -117 -25 -131 -16 -14
-17 -18 -5 -23 52 -19 -43 -332 -145 -481 -42 -61 -128 -140 -310 -286 -91
-73 -183 -149 -204 -168 -84 -75 -194 -180 -306 -291 -166 -163 -217 -210
-283 -259 -82 -60 -233 -130 -288 -133 -43 -3 -44 -2 -41 26 l3 28 -27 -21
c-37 -29 -83 -40 -199 -48 -131 -10 -407 -10 -469 -1 -62 9 -154 52 -247 116
-125 85 -182 153 -166 196 4 9 -4 16 -21 20 -16 4 -45 28 -72 61 -24 31 -57
70 -73 87 -16 17 -31 45 -33 61 -5 42 -181 295 -211 305 -23 7 -14 -24 18 -64
41 -52 71 -112 66 -132 -3 -13 -26 5 -88 68 -46 47 -100 105 -119 129 -19 24
-44 53 -55 65 -45 47 -165 231 -184 282 -20 53 -64 251 -76 344 -3 25 -8 56
-10 70 -2 14 -7 45 -10 70 -3 25 -8 56 -10 70 -3 14 -7 39 -9 55 -2 17 -8 50
-12 75 -4 25 -8 54 -10 65 -1 11 -10 63 -19 115 -9 52 -18 106 -20 120 -10 57
-46 225 -64 297 -30 119 -47 288 -31 313 3 5 16 -19 28 -54 38 -105 178 -263
316 -356 69 -47 167 -78 235 -74 198 12 402 76 546 174 65 43 70 45 49 18 -32
-43 -148 -114 -246 -152 -269 -102 -414 -103 -597 -4 -42 22 -80 44 -86 48
-21 15 -86 32 -102 26 -13 -6 -10 -12 18 -35 l33 -28 -13 -54 c-19 -74 -21
-98 -9 -106 11 -6 61 43 85 83 11 19 11 19 10 -1 -2 -14 6 -21 33 -26 19 -3
58 -17 85 -30 44 -21 67 -24 195 -26 90 -2 160 2 185 9 100 29 389 199 444
260 14 17 53 46 86 65 33 19 81 55 108 81 37 36 47 42 47 27 0 -10 -9 -28 -20
-40 -12 -12 -22 -38 -24 -57 -4 -45 -21 -75 -45 -83 -10 -3 -22 -17 -25 -31
-4 -13 -54 -72 -112 -129 -57 -58 -109 -116 -114 -129 -8 -22 -7 -48 5 -118 2
-16 2 -28 -2 -28 -3 0 -17 12 -32 28 l-26 27 -3 -25 c-6 -51 -13 -69 -37 -98
-16 -19 -32 -28 -43 -26 -20 6 -92 -65 -113 -110 -17 -37 -35 -43 -44 -17 -6
19 -8 20 -33 7 -34 -18 -132 -105 -132 -116 0 -5 12 -10 28 -12 41 -5 42 -51
2 -131 -38 -74 -54 -94 -44 -53 9 36 12 87 6 103 -3 10 -11 9 -33 -4 -34 -20
-44 -40 -28 -59 9 -11 15 -41 18 -101 1 -7 9 -13 19 -13 36 0 54 -33 66 -120
13 -93 19 -118 36 -157 19 -44 43 -56 54 -27 10 27 7 44 -9 44 -24 0 -33 38
-30 121 3 80 18 146 42 193 21 40 115 168 182 246 81 96 265 274 306 296 23
12 35 26 35 40 0 11 11 31 24 43 21 20 24 20 30 5 4 -9 -2 -32 -14 -51 -25
-43 -25 -50 0 -58 11 -4 49 -29 83 -56 34 -28 68 -48 77 -45 8 2 30 10 48 18
29 11 35 11 45 -3 7 -9 18 -14 26 -11 11 4 12 -3 6 -34 -7 -38 -7 -38 13 -21
20 18 20 18 27 -23 5 -29 13 -44 28 -49 l21 -8 -21 -12 c-25 -13 -82 -21 -101
-13 -8 2 -18 16 -23 29 -7 20 -14 24 -31 19 -13 -3 -29 1 -39 10 -16 15 -19
13 -34 -16 -23 -44 -51 -70 -77 -70 -20 0 -20 2 11 34 21 21 29 36 22 41 -17
10 -54 -4 -76 -31 -18 -21 -43 -31 -82 -33 -7 -1 -13 -14 -13 -30 0 -24 -3
-28 -23 -24 -18 4 -31 -4 -50 -26 -14 -18 -24 -37 -21 -45 3 -8 -18 -25 -58
-46 -69 -36 -138 -87 -138 -101 0 -4 8 -6 18 -3 14 5 14 3 -3 -13 -60 -55 -65
-68 -65 -192 0 -128 9 -155 48 -145 12 4 23 10 23 15 1 5 2 15 3 22 0 6 13 13
28 15 19 2 28 10 30 25 8 56 241 117 277 73 13 -15 15 -15 32 0 11 9 34 17 51
16 18 -1 48 6 66 14 52 24 135 20 192 -10 62 -33 97 -34 102 -4 4 31 42 38
201 37 122 -1 141 -3 158 -20 14 -14 16 -24 10 -41 -10 -27 -41 -37 -41 -14 0
20 -14 21 -29 2 -6 -7 -38 -19 -71 -25 -33 -7 -62 -16 -65 -20 -7 -13 29 -17
150 -16 106 2 154 7 223 25 42 11 41 -1 -3 -24 -32 -18 -34 -21 -20 -36 9 -10
27 -17 41 -17 33 -1 56 -24 69 -71 7 -26 17 -38 31 -40 20 -3 21 1 16 47 -3
37 -1 51 8 51 9 0 11 -9 6 -30 -5 -30 -5 -30 18 -15 34 22 48 64 44 126 -3 61
-10 57 92 45 36 -4 61 -13 71 -26 13 -15 19 -17 27 -7 50 63 72 209 37 247
-10 11 -19 32 -21 46 -4 36 -20 45 -71 41 -60 -5 -74 -20 -67 -68 6 -35 4 -39
-15 -39 -14 0 -27 12 -41 40 -31 62 -24 80 34 80 21 0 46 17 46 31 0 4 -23 15
-50 24 -60 20 -81 51 -69 105 15 67 21 142 14 186 -7 47 -20 57 -30 24 -10
-31 -35 -25 -35 9 0 45 -47 185 -69 205 -10 9 -25 16 -32 14 -8 -2 -12 3 -10
12 2 8 10 37 17 65 16 57 18 104 5 124 -8 12 -24 10 -103 -12 -51 -14 -113
-27 -138 -28 -54 -3 -122 -47 -230 -150 -35 -33 -66 -49 -95 -49 -30 0 -115
46 -130 70 -11 17 -86 70 -101 70 -7 0 -17 -15 -24 -34 -17 -52 -107 -79 -129
-38 -16 30 -2 105 34 177 35 72 122 191 132 181 3 -3 -6 -34 -20 -69 -56 -140
-31 -160 35 -26 54 109 96 246 102 327 4 64 0 82 -20 82 -19 0 -18 19 2 41 15
17 31 71 40 136 21 164 69 233 162 233 51 0 74 -21 102 -93 20 -50 21 -61 9
-88 -16 -40 -16 -177 0 -207 10 -19 10 -34 1 -74 -21 -85 -13 -265 12 -295 15
-18 31 -16 24 3 -8 20 9 51 35 65 11 6 48 13 81 16 51 4 64 2 90 -17 16 -12
31 -20 33 -18 8 8 -17 94 -33 111 -9 11 -15 32 -14 52 2 19 -4 48 -13 64 -8
16 -12 37 -9 46 4 9 -2 25 -12 36 -18 20 -18 20 11 13 l29 -7 -22 30 c-12 17
-45 78 -73 137 -104 215 -283 352 -362 278 -13 -12 -32 -22 -42 -22 -17 0 -17
1 1 21 28 32 102 66 144 68 8 0 33 -8 56 -18z m-1577 -335 c9 -11 9 -27 -2
-69 -13 -48 -13 -57 2 -81 14 -23 14 -27 1 -40 -8 -8 -24 -16 -35 -18 -19 -3
-20 2 -19 94 0 64 5 102 13 112 17 20 25 20 40 2z m1309 -62 c2 -29 -3 -46
-18 -64 -14 -16 -19 -32 -15 -47 4 -18 1 -23 -14 -23 -16 0 -18 -5 -12 -32 16
-72 -5 -178 -34 -178 -9 0 -18 -12 -21 -30 -4 -18 -13 -30 -22 -30 -40 0 27
333 87 428 22 35 45 24 49 -24z m-1948 -80 c0 -19 -37 -91 -51 -100 -17 -10
-29 17 -27 61 2 30 9 42 27 51 28 14 51 8 51 -12z m2382 -46 c-21 -22 -22 -22
-22 -2 0 11 5 25 12 32 8 8 15 9 22 2 7 -7 3 -17 -12 -32z m-2342 -122 c15
-33 36 -95 45 -136 10 -41 22 -91 26 -110 8 -34 23 -58 73 -128 27 -36 33 -71
41 -242 9 -178 15 -240 35 -340 18 -87 23 -157 11 -164 -24 -15 -87 91 -98
167 -10 68 -5 226 12 352 3 19 -25 78 -52 110 -55 64 -64 77 -85 118 -12 23
-31 53 -44 67 -17 19 -23 42 -27 95 -6 85 -21 125 -47 132 -28 7 -28 53 0 53
12 0 24 9 29 23 37 94 40 95 81 3z m1710 56 c0 -10 -7 -27 -15 -38 -14 -18
-14 -17 -15 12 0 17 3 34 7 37 12 13 23 7 23 -11z m-60 -77 c0 -11 -73 -85
-83 -85 -6 0 9 20 33 45 44 45 50 50 50 40z m2560 -54 c0 -5 -6 -14 -14 -20
-16 -13 -32 2 -21 19 8 12 35 13 35 1z m-1223 -27 c8 -21 -13 -42 -28 -27 -13
13 -5 43 11 43 6 0 13 -7 17 -16z m1317 -77 c0 -56 -68 -200 -97 -205 -10 -2
-16 2 -15 10 2 9 -6 12 -27 11 -45 -4 -58 26 -25 54 11 10 20 25 20 35 0 9 5
20 10 23 6 3 10 21 10 40 0 19 6 37 12 42 24 16 93 42 103 39 6 -2 10 -24 9
-49z m-3545 -6 c39 -18 42 -34 9 -40 -28 -4 -79 23 -97 50 -12 20 -11 21 21
14 18 -4 48 -15 67 -24z m1734 -306 c33 -16 57 -49 43 -62 -3 -3 -23 4 -46 16
-68 35 -119 23 -237 -57 -139 -94 -204 -118 -211 -79 -3 12 4 17 23 17 37 0
96 33 169 95 117 99 169 113 259 70z m-890 -46 c-7 -24 -33 -25 -33 -1 0 24
21 46 31 31 3 -6 4 -20 2 -30z m836 -63 c-2 -2 -32 -18 -67 -35 -54 -27 -63
-29 -69 -16 -9 24 11 38 65 46 64 9 76 10 71 5z m-205 -202 c3 -9 6 -26 6 -40
0 -15 10 -30 28 -41 15 -9 29 -18 31 -20 2 -1 -3 -19 -11 -40 -8 -21 -13 -44
-12 -50 1 -7 2 -20 3 -28 0 -8 10 -19 20 -24 14 -8 25 -6 45 10 l26 20 35 -37
c31 -32 35 -34 35 -16 0 43 96 35 107 -8 10 -37 41 -24 53 23 6 23 13 48 15
55 4 10 -5 13 -33 12 -59 -3 -74 -1 -67 10 4 7 34 10 72 8 56 -2 68 0 77 16
24 41 53 69 64 62 16 -10 -3 -46 -25 -46 -14 0 -14 -2 1 -25 34 -52 8 -91 -55
-78 -31 6 -32 5 -25 -23 9 -36 34 -64 56 -64 9 0 21 -5 28 -12 15 -15 16 -58
2 -58 -15 0 -12 -26 5 -40 12 -10 13 -16 5 -24 -13 -12 -32 7 -87 87 -31 45
-63 62 -63 34 0 -7 12 -29 26 -48 31 -40 94 -167 94 -188 0 -26 -35 15 -60 72
-13 28 -25 53 -26 55 -1 1 -11 5 -24 7 -12 2 -27 8 -34 14 -6 5 -23 9 -38 9
-25 0 -26 -3 -23 -43 4 -45 -15 -85 -40 -85 -7 0 -27 11 -43 25 -37 31 -43 31
-83 -2 -27 -23 -40 -27 -85 -25 -29 1 -66 -3 -81 -9 -49 -19 -435 -10 -456 10
-13 13 22 41 49 41 13 0 24 1 24 3 0 1 -6 22 -14 47 -13 42 -16 45 -45 42 -25
-2 -31 2 -31 18 0 11 9 28 20 37 26 23 26 37 -1 23 -37 -20 -41 -5 -10 37 17
24 42 45 56 49 23 6 24 9 19 46 l-7 40 42 -41 c41 -40 42 -41 66 -25 30 20 52
7 57 -34 3 -25 6 -27 47 -25 52 2 60 8 66 59 5 37 35 73 60 74 18 0 84 68 90
93 6 24 13 57 14 70 2 14 29 7 35 -9z m136 -120 c0 -17 -12 -18 -27 -3 -17 17
-5 43 13 28 8 -6 14 -18 14 -25z m85 -30 c25 -25 2 -43 -25 -19 -19 17 -19 35
0 35 5 0 16 -7 25 -16z m-1355 -41 c0 -13 -53 -63 -67 -63 -22 0 -15 17 18 44
30 26 49 33 49 19z m475 -89 c-27 -21 -30 -30 -30 -78 0 -47 -4 -59 -29 -85
-24 -25 -38 -31 -71 -31 -28 0 -52 -8 -75 -25 -25 -19 -37 -22 -47 -14 -21 18
-15 36 15 42 17 4 70 48 140 118 62 61 116 108 120 104 4 -4 -6 -18 -23 -31z
m63 -61 c22 -48 9 -83 -29 -83 -17 0 -17 3 -3 35 18 43 17 45 -1 45 -16 0 -20
12 -8 23 13 14 28 6 41 -20z m-643 -72 c3 -6 -3 -15 -14 -21 -21 -11 -37 2
-26 20 8 13 32 13 40 1z m1544 -98 c0 -29 -2 -33 -8 -18 -7 18 -4 55 5 55 2 0
4 -17 3 -37z m-889 2 c0 -16 -27 -32 -37 -21 -7 7 16 36 28 36 5 0 9 -7 9 -15z
m1130 -27 c0 -7 -5 -20 -10 -28 -8 -12 -10 -9 -10 13 0 15 5 27 10 27 6 0 10
-6 10 -12z m-1290 -18 c-30 -23 -58 -31 -65 -20 -8 13 36 40 65 40 l25 0 -25
-20z m-269 -77 c-9 -15 -10 -12 -10 17 0 29 1 32 10 18 7 -12 7 -24 0 -35z
m1247 -22 c-4 -35 -38 -42 -38 -8 0 14 3 33 6 41 10 26 36 -2 32 -33z m-1343
-851 c10 -11 18 -34 17 -50 0 -23 4 -31 16 -29 36 3 43 -3 73 -63 37 -74 91
-144 119 -153 10 -3 39 -36 64 -73 24 -37 61 -83 81 -102 41 -40 85 -119 85
-152 0 -13 7 -34 16 -47 14 -20 22 -22 56 -17 21 4 83 26 137 51 54 24 110 43
123 42 13 -1 49 -23 79 -48 29 -26 63 -51 75 -57 16 -9 21 -22 23 -64 3 -69
16 -86 46 -58 22 21 45 27 45 11 0 -5 -16 -21 -35 -35 -19 -15 -35 -30 -35
-34 0 -4 18 -6 40 -4 48 5 55 -16 13 -35 -16 -7 -65 -39 -110 -71 -108 -78
-152 -89 -273 -73 -3 1 -14 17 -24 36 -22 39 -29 41 -79 20 -46 -19 -47 -19
-47 3 0 9 -5 24 -10 32 -9 13 -11 13 -19 0 -16 -24 -2 -158 24 -233 13 -39 23
-73 21 -75 -17 -16 -170 170 -246 297 -82 138 -184 486 -182 620 0 38 -6 67
-23 100 -13 25 -24 61 -23 79 1 20 -7 41 -19 55 -27 28 -49 73 -56 115 -7 37
2 41 28 12z m3467 -180 c87 -43 136 -79 88 -65 -38 11 -162 71 -185 88 -38 31
10 19 97 -23z m-6 -100 c23 -11 50 -30 60 -42 l19 -21 -35 7 c-19 3 -54 16
-78 27 -24 12 -64 27 -90 34 l-47 13 64 1 c46 1 77 -5 107 -19z m-115 -30 c30
-16 22 -32 -13 -28 -22 2 -34 9 -36 21 -4 19 19 23 49 7z m-1150 -130 c-30
-26 -49 -26 -26 0 10 11 25 20 34 20 12 -1 10 -5 -8 -20z m1009 -40 c0 -12
-28 -25 -36 -17 -9 9 6 27 22 27 8 0 14 -5 14 -10z m197 -37 c-7 -7 -57 8 -57
18 0 4 14 3 31 -3 16 -6 28 -12 26 -15z m-137 -2 c0 -8 -23 -19 -73 -35 -12
-4 -17 -2 -15 6 3 7 22 18 44 25 21 6 40 12 42 12 1 1 2 -3 2 -8z m-185 -181
c-12 -13 -22 -17 -28 -11 -13 13 1 31 25 31 21 0 21 -1 3 -20z m-768 -175 c6
-20 -13 -33 -54 -38 -22 -4 -52 -9 -66 -12 -28 -7 -46 10 -28 28 31 31 140 47
148 22z m-1447 -412 c0 -10 -32 -43 -42 -43 -5 0 -1 11 8 25 15 23 34 33 34
18z"/>
<path d="M2872 5483 c-4 -50 7 -93 23 -93 20 0 24 33 9 75 -18 54 -30 61 -32
18z"/>
<path d="M3767 5474 c-12 -12 6 -33 39 -44 47 -16 87 -66 82 -102 -5 -34 11
-33 29 2 10 20 9 30 -9 62 -12 21 -25 38 -28 38 -4 0 -12 11 -18 25 -9 20 -19
25 -50 25 -21 0 -41 -3 -45 -6z"/>
<path d="M2441 5341 c-18 -14 -21 -22 -14 -35 8 -15 11 -15 36 4 28 22 36 50
15 50 -7 0 -24 -9 -37 -19z"/>
<path d="M1768 3599 c-4 -28 6 -97 16 -107 4 -3 11 0 17 8 11 18 2 77 -16 103
-13 18 -13 18 -17 -4z"/>
<path d="M3050 3535 c-6 -8 -9 -19 -6 -24 9 -14 36 -2 36 14 0 21 -16 26 -30
10z"/>
<path d="M5266 3213 c-3 -4 -6 -20 -6 -38 0 -38 -11 -51 -77 -95 -61 -41 -69
-54 -48 -86 12 -19 7 -33 -8 -21 -10 7 -35 -27 -30 -40 5 -13 2 -15 -11 -10
-10 4 -20 7 -22 7 -18 0 24 125 52 153 13 14 45 30 69 36 47 12 57 29 30 51
-24 20 -54 1 -116 -72 -58 -68 -89 -117 -89 -142 0 -8 -15 -32 -32 -52 -26
-30 -29 -35 -11 -25 19 10 25 8 40 -9 10 -11 25 -20 35 -20 33 0 27 -17 -17
-48 -25 -17 -45 -37 -45 -43 0 -17 59 -3 93 22 16 11 30 19 33 17 14 -14 -135
-216 -175 -238 -10 -5 -31 -8 -47 -7 -23 2 -29 -2 -29 -18 0 -21 24 -24 114
-14 45 5 51 -15 9 -27 -38 -11 -46 -41 -10 -36 40 6 24 -26 -25 -52 -30 -15
-40 -36 -34 -70 4 -19 -11 -45 -29 -51 -11 -4 -43 -46 -71 -94 -37 -64 -61
-93 -84 -104 -37 -18 -67 -74 -45 -87 9 -6 1 -16 -29 -35 -36 -24 -47 -41 -57
-87 -1 -5 -2 -13 -3 -19 -1 -11 -17 -9 -55 7 -14 5 -17 4 -11 -5 5 -8 -5 -23
-27 -41 -20 -16 -49 -58 -66 -93 -30 -64 -61 -102 -47 -58 9 30 -23 28 -34 -2
-5 -13 -21 -37 -36 -55 l-27 -32 46 6 c40 6 46 5 40 -9 -9 -24 -126 -79 -167
-79 -34 0 -35 -1 -27 -29 8 -25 6 -28 -13 -26 -16 1 -23 -4 -25 -20 -2 -13
-14 -25 -32 -32 -20 -7 -31 -19 -35 -38 -11 -47 -14 -53 -28 -53 -9 0 -12 9
-9 30 6 39 -18 40 -52 3 -25 -27 -26 -27 -41 -8 -15 20 -15 20 -30 1 -8 -11
-15 -26 -15 -34 0 -11 -9 -13 -32 -10 -39 6 -58 1 -58 -16 0 -20 -31 -43 -77
-57 -39 -11 -48 -19 -44 -41 0 -4 -15 2 -34 13 -35 21 -55 19 -55 -6 0 -33
-101 -50 -118 -19 -7 13 -13 12 -41 -11 -62 -53 -67 -98 -6 -51 32 25 37 26
51 11 16 -16 49 -16 158 0 20 3 53 7 74 10 72 10 107 18 125 27 14 7 25 4 42
-12 29 -27 98 -29 149 -5 51 24 169 127 386 338 101 98 220 206 345 312 156
133 305 267 325 292 132 168 160 218 160 283 0 41 -25 111 -48 135 -12 13 -22
30 -22 39 0 14 6 12 34 -9 l35 -26 17 25 c16 26 16 75 -1 147 -6 21 -2 27 22
38 l28 13 -24 19 c-14 12 -18 19 -9 19 8 0 19 5 26 12 15 15 -12 48 -39 48
-15 0 -18 -8 -17 -46 1 -58 -25 -91 -47 -61 -13 18 -14 18 -32 -3 -31 -39 -56
-60 -70 -60 -17 0 -17 15 1 29 20 16 36 90 36 162 0 59 2 63 40 98 35 32 39
41 42 91 2 41 7 55 18 55 10 0 15 -10 15 -29 0 -33 18 -44 40 -26 15 13 21
122 9 167 -6 22 -27 36 -38 26z m-52 -562 c9 -13 -36 -49 -82 -65 -50 -18 -54
-9 -9 25 60 45 82 55 91 40z m-78 -190 c-9 -16 -23 -32 -32 -35 -13 -5 -15 -9
-6 -18 19 -19 14 -43 -13 -68 l-25 -23 0 24 c0 33 44 125 67 138 25 15 25 14
9 -18z m81 -147 c8 -21 -13 -42 -28 -27 -13 13 -5 43 11 43 6 0 13 -7 17 -16z
m-280 -70 c9 -23 -13 -40 -32 -24 -12 10 -13 16 -4 26 15 18 28 18 36 -2z
m-797 -928 c0 -17 -27 -29 -35 -16 -4 6 -3 15 0 20 9 15 35 12 35 -4z"/>
<path d="M2060 3111 c0 -9 31 -31 44 -31 3 0 6 7 6 15 0 8 -4 15 -9 15 -5 0
-16 3 -25 6 -9 3 -16 1 -16 -5z"/>
<path d="M2971 3017 c-12 -33 -3 -49 20 -36 23 12 25 45 4 53 -10 4 -19 -2
-24 -17z"/>
<path d="M4220 2900 c0 -18 27 -64 49 -84 29 -26 48 -9 31 25 -27 52 -80 90
-80 59z"/>
<path d="M2338 2884 c-15 -14 -9 -94 6 -94 8 0 16 6 18 13 7 17 -15 90 -24 81z"/>
<path d="M4971 2836 c-7 -9 -8 -17 -2 -20 13 -9 43 4 38 17 -5 17 -23 19 -36
3z"/>
<path d="M2243 2715 c-37 -37 -39 -54 -5 -36 26 14 67 71 52 71 -7 0 -28 -16
-47 -35z"/>
<path d="M4280 2731 c-24 -46 1 -50 33 -6 17 24 17 25 -2 25 -11 0 -25 -9 -31
-19z"/>
<path d="M4933 2720 c-30 -12 -30 -54 -1 -74 27 -19 55 -6 64 31 5 19 2 30
-11 40 -21 15 -22 15 -52 3z"/>
<path d="M4371 2681 c14 -39 56 -78 70 -64 11 11 -29 66 -62 83 -16 9 -17 8
-8 -19z"/>
<path d="M4520 2386 c0 -27 28 -43 36 -21 9 21 -3 45 -21 45 -9 0 -15 -9 -15
-24z"/>
<path d="M3122 2217 c2 -7 24 -22 47 -34 33 -17 48 -20 62 -12 21 11 23 18 10
38 -12 18 -124 25 -119 8z"/>
<path d="M4294 2195 c3 -9 6 -19 6 -21 0 -2 7 -4 16 -4 22 0 13 34 -10 38 -14
3 -17 0 -12 -13z"/>
<path d="M3331 2191 c-22 -14 -4 -33 20 -21 11 6 17 15 14 21 -8 11 -16 11
-34 0z"/>
<path d="M3515 2190 c-3 -5 -4 -14 0 -20 8 -13 35 -1 35 16 0 16 -26 19 -35 4z"/>
<path d="M3819 2155 c-4 -3 -42 -8 -85 -11 -43 -4 -84 -11 -90 -15 -6 -5 -9
-21 -7 -37 4 -23 3 -24 -7 -9 -23 36 -63 46 -171 44 -110 -2 -184 -25 -184
-57 0 -8 24 -28 53 -43 72 -39 70 -50 -13 -61 -84 -12 -85 -12 -98 -57 -4 -11
-13 -15 -30 -12 -23 5 -46 -12 -34 -23 13 -13 288 -21 352 -11 22 3 43 6 47 7
3 0 8 8 10 17 2 11 21 20 55 28 l53 12 -6 -38 c-5 -32 -4 -39 10 -39 9 0 18
12 22 28 9 39 32 72 50 72 10 0 15 -8 14 -22 -3 -37 -1 -39 20 -28 12 6 26 23
32 38 10 26 10 27 18 5 5 -12 15 -21 22 -19 15 2 135 74 142 84 2 4 -28 7 -67
7 -79 0 -175 19 -202 39 -16 12 -15 14 16 34 19 11 46 23 59 25 41 8 61 19 57
31 -4 12 -30 20 -38 11z m-504 -234 c6 -11 -33 -36 -42 -27 -3 3 -3 12 0 21 7
17 33 20 42 6z m193 0 c33 -20 -64 -48 -119 -34 -26 7 -24 31 4 36 40 8 102 7
115 -2z"/>
<path d="M3974 2075 c-10 -8 -14 -15 -7 -15 19 0 43 11 43 21 0 13 -14 11 -36
-6z"/>
<path d="M3117 2063 c-24 -24 12 -50 44 -32 16 8 18 13 8 25 -12 15 -41 19
-52 7z"/>
<path d="M3081 1971 c-12 -8 -12 -12 -2 -25 15 -18 37 -21 46 -6 7 11 -11 40
-24 40 -3 0 -12 -4 -20 -9z"/>
<path d="M2900 1260 c0 -5 0 -13 -1 -17 -1 -12 37 -22 50 -14 10 6 9 12 -4 25
-18 18 -45 22 -45 6z"/>
<path d="M3320 1200 c0 -13 7 -20 18 -20 24 0 32 8 25 26 -8 22 -43 17 -43 -6z"/>
<path d="M3254 1145 c-9 -23 3 -44 32 -56 29 -10 54 -6 54 9 0 15 -51 62 -67
62 -7 0 -16 -7 -19 -15z"/>
<path d="M3056 1141 c-6 -10 60 -8 70 2 4 4 -9 7 -29 7 -20 0 -38 -4 -41 -9z"/>
<path d="M3656 2692 c-7 -12 8 -57 23 -67 7 -4 11 3 11 17 0 30 -24 66 -34 50z"/>
<path d="M3566 2651 c-3 -4 -5 -29 -4 -54 0 -26 -5 -54 -12 -62 -12 -14 -16
-12 -33 15 -18 28 -21 30 -37 15 -23 -21 -33 -19 -88 15 -61 37 -68 37 -75 1
-6 -29 -12 -32 -69 -45 -31 -7 -35 -22 -14 -51 13 -18 14 -18 39 2 18 14 37
19 59 17 185 -20 271 -16 310 16 21 17 22 19 7 37 -9 10 -20 31 -23 48 -12 47
-44 72 -60 46z"/>
<path d="M3779 2648 c-3 -21 -2 -41 2 -68 4 -22 1 -25 -23 -23 -17 1 -28 -3
-28 -11 0 -21 23 -36 58 -36 23 0 40 -7 52 -22 22 -28 36 -18 43 30 3 19 14
40 24 47 25 19 3 40 -40 37 -27 -2 -36 3 -50 28 -19 31 -36 39 -38 18z"/>
<path d="M3605 2456 c-52 -15 -55 -43 -5 -38 39 4 70 18 70 31 0 16 -24 18
-65 7z"/>
<path d="M2913 2558 c-20 -22 -43 -61 -43 -72 0 -15 23 -3 55 29 36 36 46 65
22 65 -8 0 -23 -10 -34 -22z"/>
<path d="M4089 6312 c13 -25 40 -46 48 -39 9 10 -26 57 -43 57 -11 0 -12 -4
-5 -18z"/>
<path d="M5856 6304 c-20 -19 -21 -60 -2 -67 20 -8 27 2 20 30 -4 13 -1 30 6
38 17 20 -4 20 -24 -1z"/>
<path d="M5981 6266 c-10 -12 -8 -17 7 -25 15 -8 23 -6 36 8 9 10 13 21 9 24
-11 12 -40 8 -52 -7z"/>
<path d="M4220 6200 c0 -5 12 -10 26 -10 14 0 23 4 19 10 -3 6 -15 10 -26 10
-10 0 -19 -4 -19 -10z"/>
<path d="M6013 6195 c-34 -15 -49 -54 -15 -40 9 4 35 9 57 12 58 7 65 10 59
28 -8 19 -58 19 -101 0z"/>
<path d="M1721 6130 c0 -33 1 -34 11 -12 8 17 8 26 0 34 -9 9 -12 4 -11 -22z"/>
<path d="M4634 6152 c6 -10 42 -9 52 1 4 4 -7 7 -25 7 -18 0 -30 -4 -27 -8z"/>
<path d="M6065 6119 c-4 -6 -23 -9 -43 -7 -50 4 -53 -21 -9 -67 40 -41 55 -44
59 -10 5 40 27 15 32 -37 4 -52 23 -85 58 -102 13 -6 37 -34 55 -61 17 -28 40
-61 52 -75 l20 -25 0 25 c0 14 -11 52 -25 85 -14 33 -34 89 -44 125 -10 35
-25 69 -33 75 -8 5 -17 20 -21 32 -4 13 -14 30 -22 38 -18 17 -70 20 -79 4z"/>
<path d="M1702 6028 c-14 -18 -80 -161 -108 -235 -25 -67 -18 -91 17 -54 10
11 25 18 32 15 23 -8 38 21 52 103 13 77 25 183 20 183 -1 0 -7 -6 -13 -12z"/>
<path d="M6295 5710 c-9 -15 16 -43 27 -32 10 10 0 42 -12 42 -5 0 -12 -5 -15
-10z"/>
<path d="M5358 5606 c-10 -7 -18 -16 -18 -20 0 -10 38 -7 46 5 11 18 -10 29
-28 15z"/>
<path d="M1393 5465 c-3 -9 -3 -19 1 -22 7 -7 36 16 36 28 0 15 -30 10 -37 -6z"/>
<path d="M1319 5371 c-19 -16 -20 -20 -8 -21 17 0 45 27 37 35 -3 3 -16 -3
-29 -14z"/>
<path d="M5510 5365 l-25 -13 25 -6 c29 -7 87 -3 96 7 7 7 -38 27 -59 27 -7
-1 -23 -7 -37 -15z"/>
<path d="M5610 5235 c-16 -20 -5 -75 21 -103 24 -27 56 -28 64 -3 3 10 15 23
28 29 20 10 19 11 -15 11 -33 1 -39 5 -44 29 -12 50 -32 63 -54 37z"/>
<path d="M5752 5128 c-12 -6 -21 -16 -19 -21 8 -25 127 -4 127 23 0 13 -78 12
-108 -2z"/>
<path d="M5720 5050 c-11 -7 -6 -10 20 -10 26 0 31 3 20 10 -8 5 -17 10 -20
10 -3 0 -12 -5 -20 -10z"/>
<path d="M5885 5000 c-12 -19 5 -30 25 -17 11 6 20 15 20 19 0 12 -38 10 -45
-2z"/>
<path d="M5772 4958 c-14 -14 -4 -38 18 -38 9 0 29 -11 44 -25 28 -26 51 -31
75 -16 20 13 6 41 -21 41 -21 0 -34 6 -85 37 -14 9 -23 9 -31 1z"/>
<path d="M6567 4912 c2 -26 9 -63 15 -82 10 -31 12 -32 19 -13 4 11 6 27 5 34
-14 71 -20 90 -30 98 -9 8 -11 -1 -9 -37z"/>
<path d="M5941 4791 c-10 -7 -11 -13 -2 -30 7 -11 16 -21 22 -21 13 0 92 40
87 45 -9 9 -94 14 -107 6z"/>
<path d="M6127 4744 c-13 -13 -7 -42 9 -48 22 -8 56 12 52 32 -3 17 -48 29
-61 16z"/>
<path d="M6619 4708 c-5 -17 -4 -50 3 -60 5 -8 8 1 8 25 0 20 -2 37 -5 37 -3
0 -5 -1 -6 -2z"/>
<path d="M6144 4635 c-8 -20 4 -66 23 -87 10 -12 14 -27 10 -47 -8 -36 14 -59
33 -36 18 22 5 120 -21 156 -23 32 -37 36 -45 14z"/>
<path d="M6595 4408 c-2 -7 -6 -29 -9 -49 -6 -36 -26 -61 -58 -72 -15 -5 -22
-21 -20 -47 0 -9 14 -164 17 -200 2 -19 6 -78 10 -130 3 -52 8 -106 10 -120 2
-14 7 -44 10 -68 4 -24 10 -53 15 -65 7 -18 9 -14 10 23 1 25 3 72 5 105 2 33
6 123 9 200 10 230 17 338 27 380 5 22 9 43 9 48 0 12 -30 8 -35 -5z"/>
<path d="M6527 4403 c-10 -9 -8 -41 2 -48 14 -8 41 23 35 40 -6 16 -26 20 -37
8z"/>
<path d="M6177 3827 c-11 -8 -14 -17 -8 -26 11 -17 41 -7 41 13 0 21 -15 27
-33 13z"/>
<path d="M1054 3715 c-9 -24 8 -126 26 -150 12 -16 48 -133 65 -210 26 -115
35 -145 44 -145 27 0 -34 302 -79 390 -14 27 -19 51 -15 67 3 14 3 33 0 44 -7
22 -33 25 -41 4z"/>
<path d="M6150 3645 c-15 -18 -6 -45 14 -45 7 0 16 10 19 22 10 37 -10 51 -33
23z"/>
<path d="M6193 3484 c8 -63 19 -104 28 -110 12 -7 11 53 -1 98 -15 53 -34 61
-27 12z"/>
<path d="M6560 3423 c-14 -32 -47 -124 -48 -136 0 -7 -20 -131 -28 -177 -2
-14 -7 -92 -9 -175 -10 -290 -17 -342 -80 -583 -41 -155 -42 -162 -14 -162 25
0 45 44 54 120 6 57 23 147 49 260 18 81 26 149 31 270 8 174 15 285 19 305 6
35 17 110 16 115 -1 3 3 17 9 33 11 28 13 36 26 115 8 48 -5 56 -25 15z"/>
<path d="M6356 3024 c-3 -9 -6 -24 -6 -35 0 -10 -6 -19 -14 -19 -27 0 -75
-141 -85 -249 -6 -61 -25 -93 -33 -54 -3 14 -17 5 -64 -44 -57 -58 -80 -71
-67 -37 11 28 -15 13 -61 -36 -25 -27 -51 -61 -56 -74 -7 -18 -21 -28 -52 -36
-80 -20 -105 -36 -112 -72 -3 -18 -25 -58 -48 -88 -88 -117 -182 -280 -160
-280 4 0 -6 -10 -22 -23 -36 -29 -29 -62 14 -72 34 -8 39 -29 11 -45 -11 -5
-23 -20 -26 -32 -4 -13 -23 -48 -41 -79 -19 -31 -34 -62 -34 -68 0 -19 22 -12
27 9 6 21 14 23 73 20 27 -1 41 5 57 24 20 23 27 25 81 20 l58 -6 60 52 c77
68 180 127 277 161 96 33 111 51 103 121 -4 28 -9 55 -12 59 -9 16 -6 132 6
183 6 27 33 100 61 161 66 149 101 253 87 261 -5 3 -23 -3 -39 -15 -25 -18
-28 -19 -22 -4 12 34 46 63 75 63 33 0 39 25 7 33 l-21 6 20 21 c21 23 21 61
1 141 -10 40 -34 57 -43 33z m-177 -511 c-31 -39 -99 -83 -99 -65 0 5 12 20
28 34 46 43 98 65 71 31z m-22 -129 c5 -16 -34 -24 -47 -10 -5 7 -7 16 -3 20
10 10 46 3 50 -10z m-213 -130 c22 -9 10 -23 -14 -17 -11 3 -17 9 -14 14 6 11
8 11 28 3z m-205 -248 c19 -20 21 -28 12 -45 -14 -25 -29 -27 -37 -6 -4 8 -18
15 -33 15 -34 0 -56 14 -46 30 5 8 20 10 42 7 28 -5 34 -3 29 8 -8 23 8 18 33
-9z m206 -35 c-3 -6 -14 -11 -23 -11 -15 1 -15 2 2 15 21 16 32 13 21 -4z
m-250 -57 c13 -13 14 -19 4 -25 -18 -11 -39 1 -39 22 0 23 13 24 35 3z m18
-70 c10 -10 -12 -44 -28 -44 -18 0 -18 5 -5 31 11 19 22 24 33 13z"/>
<path d="M5982 2887 c-26 -27 -28 -37 -8 -37 19 0 46 27 46 46 0 20 -13 17
-38 -9z"/>
<path d="M5923 2785 c-35 -15 -42 -29 -19 -38 14 -6 56 27 56 43 0 12 2 12
-37 -5z"/>
<path d="M1437 2427 c-3 -7 -2 -19 3 -26 5 -10 8 -9 13 2 3 7 2 19 -3 26 -5
10 -8 9 -13 -2z"/>
<path d="M5180 1515 c0 -15 48 -95 57 -95 11 0 -10 76 -24 93 -20 21 -33 22
-33 2z"/>
<path d="M5092 1394 c-37 -25 -25 -74 19 -74 11 0 39 54 39 75 0 19 -29 19
-58 -1z"/>
<path d="M5223 1352 c-22 -13 -52 -97 -41 -115 13 -25 28 -21 28 8 0 28 12 32
34 10 19 -19 40 -19 56 0 9 11 8 20 -8 42 -30 42 -56 63 -69 55z"/>
<path d="M4970 1315 c-39 -28 -50 -43 -50 -66 0 -22 27 -32 51 -18 24 12 59
67 59 92 0 24 -20 21 -60 -8z"/>
<path d="M6201 1030 c-17 -10 -7 -40 14 -40 8 0 15 9 15 19 0 24 -12 32 -29
21z"/>
<path d="M2260 631 c0 -22 25 -39 38 -27 8 8 -10 38 -26 44 -7 2 -12 -6 -12
-17z"/>
<path d="M2226 558 c-12 -46 -8 -58 16 -49 32 12 45 36 29 55 -19 23 -38 20
-45 -6z"/>
<path d="M2090 563 c-39 -15 -92 -55 -83 -64 19 -19 133 34 133 62 0 10 -26
11 -50 2z"/>
<path d="M2310 441 c0 -18 4 -30 9 -26 6 3 8 15 6 27 -7 34 -15 34 -15 -1z"/>
<path d="M4291 366 c-14 -17 -7 -36 14 -36 22 0 29 20 13 36 -13 13 -16 13
-27 0z"/>
</g>
</svg>
